<svg width="20" height="20" viewBox="0 0 20 20" fill="none" xmlns="http://www.w3.org/2000/svg">
<path d="M4.98815 9.514L3.02904 11.7984C2.96398 11.8635 2.93506 11.943 2.93506 12.0442C2.93506 12.1382 2.9712 12.225 3.03627 12.29C3.10133 12.3623 3.18808 12.3912 3.28929 12.3912H5.83397C5.93518 12.3912 6.02193 12.3551 6.08699 12.29C6.15928 12.2177 6.1882 12.1382 6.1882 12.0442C6.1882 11.9502 6.15206 11.8707 6.08699 11.7984C6.0147 11.7261 5.93518 11.69 5.83397 11.69H3.90377L5.47974 9.89715C5.57372 9.78871 5.67493 9.66581 5.76891 9.52846C5.86289 9.3911 5.94241 9.24652 6.00024 9.09471C6.0653 8.94289 6.09422 8.79108 6.09422 8.6465C6.09422 8.31395 6.02916 8.02478 5.90626 7.77899C5.78337 7.5332 5.60264 7.34524 5.3713 7.21511C5.13997 7.08499 4.87249 7.0127 4.56163 7.0127C4.25077 7.0127 3.97606 7.08499 3.73027 7.22957C3.48448 7.37416 3.28929 7.56934 3.15193 7.80791C3.00735 8.0537 2.93506 8.33564 2.93506 8.6465C2.93506 8.74048 2.9712 8.82 3.03627 8.88506C3.10856 8.95735 3.18808 8.98627 3.28206 8.98627C3.38327 8.98627 3.47002 8.95012 3.53508 8.88506C3.60015 8.81277 3.63629 8.73325 3.63629 8.6465C3.63629 8.46577 3.67967 8.30672 3.75919 8.15491C3.83871 8.0031 3.94715 7.88743 4.09173 7.79345C4.22909 7.7067 4.38813 7.65609 4.56163 7.65609C4.74236 7.65609 4.89417 7.69947 5.0243 7.77899C5.15442 7.85851 5.2484 7.97418 5.3207 8.11876C5.39299 8.26335 5.42191 8.43685 5.42191 8.63927C5.42191 8.76939 5.38576 8.90675 5.30624 9.0441C5.23395 9.20314 5.12551 9.35496 4.98815 9.514Z" fill="#232323"/>
<path d="M9.41261 12.2965C9.47767 12.3688 9.55719 12.3977 9.64395 12.3977C9.74515 12.3977 9.82468 12.3615 9.88974 12.2965C9.9548 12.2242 9.98372 12.1446 9.98372 12.0507V11.1832H10.3958C10.4898 11.1832 10.5765 11.1542 10.6416 11.0892C10.7139 11.0241 10.7428 10.9518 10.7428 10.8651C10.7428 10.7422 10.7066 10.6627 10.6416 10.6193C10.5693 10.5759 10.4898 10.547 10.3958 10.547H9.98372V7.3806C9.98372 7.27939 9.9548 7.19264 9.89697 7.12758C9.83913 7.05528 9.75961 7.02637 9.66563 7.02637C9.6078 7.02637 9.54997 7.04083 9.50659 7.06974C9.45599 7.09866 9.41261 7.13481 9.37646 7.17818L6.7378 10.6337C6.6872 10.706 6.66551 10.7783 6.67274 10.8651C6.67997 10.9518 6.71612 11.0241 6.77395 11.0892C6.83178 11.1542 6.91853 11.1832 7.01974 11.1832H9.3114V12.0507C9.31863 12.1446 9.34755 12.2242 9.41261 12.2965ZM7.58362 10.547L9.31863 8.26256V10.547H7.58362Z" fill="#232323"/>
<path d="M13.7209 7.01953C13.6486 7.01953 13.5908 7.04122 13.5257 7.07737C13.4679 7.11351 13.4245 7.16412 13.3956 7.22918L11.3208 12.4125C11.2702 12.5354 11.2774 12.6511 11.3425 12.7523C11.4076 12.8535 11.5088 12.9041 11.6317 12.9041C11.6967 12.9041 11.7618 12.8896 11.8196 12.8535C11.8847 12.8246 11.9281 12.7668 11.957 12.6945L14.0318 7.51112C14.0824 7.38099 14.0751 7.26532 14.0028 7.16412C13.9305 7.07014 13.8366 7.01953 13.7209 7.01953Z" fill="#232323"/>
<path d="M14.5958 7.12074C14.5308 7.1858 14.4946 7.27255 14.4946 7.37376C14.4946 7.47497 14.5308 7.56172 14.5958 7.62678C14.6609 7.69185 14.7477 7.72799 14.8489 7.72799H16.9453L14.9645 11.827C14.9428 11.8703 14.9284 11.9065 14.9212 11.9426C14.9067 11.9788 14.9067 12.0149 14.9067 12.0511C14.9067 12.145 14.9428 12.2318 15.0079 12.2969C15.0802 12.3691 15.1597 12.3981 15.2465 12.3981C15.3911 12.3981 15.4995 12.333 15.5718 12.2029L17.7767 7.55449C17.7911 7.52558 17.7984 7.48943 17.8128 7.46051C17.8201 7.4316 17.8273 7.40268 17.8273 7.36653C17.8273 7.27255 17.7911 7.1858 17.7261 7.12074C17.6538 7.04845 17.5743 7.01953 17.4803 7.01953H14.8561C14.7477 7.01953 14.6609 7.05568 14.5958 7.12074Z" fill="#232323"/>
<path d="M19.996 9.78863C19.996 9.7814 19.996 9.7814 19.996 9.7814C19.996 9.73803 19.996 9.69465 19.996 9.64405C19.996 9.63682 19.996 9.62959 19.996 9.62959C19.996 9.60067 19.996 9.57176 19.996 9.54284C19.996 9.53561 19.996 9.52838 19.996 9.52115C19.996 9.49946 19.996 9.47055 19.996 9.44886C19.996 9.41994 19.996 9.39826 19.9887 9.36934V9.36211C19.9887 9.34042 19.9887 9.31151 19.9815 9.28982C19.9815 9.28259 19.9815 9.27536 19.9815 9.26813C19.9815 9.2609 19.9815 9.25367 19.9815 9.23921C19.9815 9.19584 19.9743 9.15246 19.9743 9.10909C19.9743 9.09463 19.9743 9.08017 19.967 9.06571L19.9598 8.9645C19.9526 8.9139 19.9454 8.86329 19.9454 8.81269C19.9454 8.78377 19.9381 8.74763 19.9309 8.71871V8.71148C19.9309 8.69702 19.9237 8.68256 19.9237 8.66811C19.9237 8.64642 19.9164 8.62473 19.9164 8.60304C19.9092 8.57413 19.9092 8.54521 19.902 8.52352C19.902 8.51629 19.902 8.50906 19.902 8.50183C19.8947 8.46569 19.8875 8.42231 19.8875 8.38617C19.8875 8.37894 19.8875 8.36448 19.8803 8.35725C19.8731 8.30665 19.8658 8.24881 19.8514 8.19821C19.8514 8.19098 19.8514 8.19098 19.8514 8.18375C19.8514 8.17652 19.8514 8.16929 19.8441 8.15483C19.8369 8.11146 19.8297 8.06808 19.8152 8.02471V8.01748C19.8152 8.01748 19.8152 8.01748 19.8152 8.01025C19.808 7.96687 19.8008 7.9235 19.7863 7.88735V7.88012C19.7791 7.82952 19.7646 7.77891 19.7502 7.72831V7.72108V7.71385V7.70662C19.7429 7.68493 19.7429 7.66325 19.7357 7.64156C19.7285 7.59818 19.714 7.55481 19.7068 7.51143C19.6923 7.46083 19.6779 7.41022 19.6706 7.35962V7.35239C19.6706 7.34516 19.6634 7.3307 19.6634 7.32347C19.649 7.27287 19.6345 7.22226 19.62 7.17166C19.5839 7.05599 19.555 6.94755 19.5188 6.83912C19.4755 6.70899 19.4321 6.59332 19.3959 6.48489L19.3815 6.45597C19.3742 6.44151 19.367 6.42705 19.367 6.41259L19.3598 6.39091C19.3526 6.38368 19.3526 6.36922 19.3453 6.36199C19.3453 6.35476 19.3381 6.34753 19.3381 6.3403L19.3309 6.32584C19.3092 6.27524 19.2947 6.23186 19.273 6.18849C19.273 6.18849 19.273 6.18126 19.2658 6.18126C19.2513 6.15234 19.2441 6.12343 19.2297 6.09451C19.2152 6.05836 19.2007 6.02945 19.1863 5.9933C19.1863 5.98607 19.1791 5.97884 19.1791 5.97884C19.1791 5.97884 19.1791 5.97884 19.1791 5.97161C19.1429 5.89209 19.114 5.8198 19.0778 5.75474L19.0706 5.73305C19.0562 5.70413 19.0417 5.67521 19.0272 5.6463C19.0128 5.61738 18.9983 5.58846 18.9839 5.55955C18.9766 5.53786 18.9622 5.51617 18.955 5.50171L18.9477 5.48726C18.9043 5.4005 18.861 5.31375 18.8104 5.21977C18.767 5.14025 18.7308 5.07519 18.6947 5.01013C18.6875 4.99567 18.673 4.97398 18.6658 4.95952C18.6513 4.93784 18.6441 4.91615 18.6296 4.90169C18.6152 4.88 18.608 4.86554 18.5935 4.84386C18.5646 4.80048 18.5357 4.74988 18.514 4.7065C18.514 4.7065 18.514 4.7065 18.514 4.69927C18.514 4.69927 18.514 4.69927 18.514 4.69204L18.5067 4.68481C18.4995 4.67758 18.4995 4.67035 18.4923 4.67035L18.4851 4.66313C18.4778 4.6559 18.4778 4.6559 18.4706 4.64867L18.4634 4.64144C18.4561 4.63421 18.4561 4.63421 18.4489 4.62698C18.4417 4.62698 18.4417 4.61975 18.4344 4.61975C18.4272 4.61975 18.4272 4.61252 18.42 4.61252C18.4128 4.61252 18.4128 4.60529 18.4055 4.60529C18.3983 4.60529 18.3983 4.59806 18.3911 4.59806C18.3838 4.59806 18.3838 4.59083 18.3766 4.59083C18.3694 4.59083 18.3694 4.5836 18.3622 4.5836C18.3549 4.5836 18.3549 4.57638 18.3477 4.57638C18.3405 4.57638 18.3405 4.56915 18.3332 4.56915C18.326 4.56915 18.326 4.56915 18.3188 4.56192C18.3116 4.56192 18.3116 4.56192 18.3043 4.55469C18.2971 4.55469 18.2971 4.55469 18.2899 4.55469C18.2826 4.55469 18.2754 4.55469 18.2754 4.55469C18.2682 4.55469 18.2682 4.55469 18.2609 4.55469C18.2537 4.55469 18.2465 4.55469 18.2465 4.55469C18.2393 4.55469 18.2393 4.55469 18.232 4.55469C18.2248 4.55469 18.2176 4.55469 18.2176 4.55469C18.2103 4.55469 18.2103 4.55469 18.2031 4.55469C18.1959 4.55469 18.1959 4.55469 18.1887 4.55469C18.1814 4.55469 18.1814 4.55469 18.1742 4.55469C18.167 4.55469 18.167 4.55469 18.1597 4.55469C18.1525 4.55469 18.1453 4.55469 18.1381 4.56192H18.1308C18.1091 4.56915 18.0874 4.57638 18.073 4.5836C18.0441 4.59806 18.0224 4.61252 18.0007 4.63421C18.0007 4.63421 18.0007 4.63421 17.9935 4.64144C17.9862 4.64867 17.979 4.6559 17.979 4.6559C17.979 4.66313 17.9718 4.66313 17.9718 4.67035C17.9718 4.67758 17.9646 4.67758 17.9646 4.68481C17.9573 4.69204 17.9573 4.69204 17.9573 4.69927L17.9501 4.7065C17.9501 4.71373 17.9429 4.72096 17.9429 4.72096C17.9429 4.72819 17.9356 4.72819 17.9356 4.73542C17.9356 4.74265 17.9284 4.74988 17.9284 4.74988C17.9284 4.75711 17.9284 4.75711 17.9212 4.76433C17.9212 4.77156 17.9212 4.77156 17.9139 4.77879C17.9139 4.78602 17.9139 4.78602 17.9067 4.79325C17.9067 4.80048 17.9067 4.80048 17.9067 4.80771C17.9067 4.81494 17.9067 4.82217 17.9067 4.82217C17.9067 4.8294 17.9067 4.8294 17.9067 4.83663C17.9067 4.84386 17.9067 4.85108 17.9067 4.85831C17.9067 4.86554 17.9067 4.86554 17.9067 4.87277C17.9067 4.88 17.9067 4.88723 17.9067 4.89446C17.9067 4.90169 17.9067 4.90169 17.9067 4.90892C17.9067 4.91615 17.9067 4.92338 17.9067 4.92338C17.9067 4.93061 17.9067 4.93784 17.9139 4.94506C17.9139 4.95229 17.9139 4.95229 17.9139 4.95952C17.9139 4.96675 17.9212 4.98121 17.9212 4.98844C17.9284 4.99567 17.9284 5.01013 17.9356 5.01736C17.9429 5.02459 17.9429 5.03904 17.9501 5.04627C17.979 5.08965 18.0079 5.13302 18.0368 5.18363C18.0585 5.21977 18.0802 5.25592 18.1019 5.29207C18.1091 5.2993 18.1164 5.31375 18.1164 5.32098C18.1236 5.32821 18.1236 5.33544 18.1308 5.34267C18.167 5.40773 18.2031 5.4728 18.2393 5.53786C18.2393 5.54509 18.2465 5.54509 18.2465 5.55232C18.2899 5.63907 18.3332 5.71136 18.3694 5.78365C18.3838 5.80534 18.3911 5.82703 18.4055 5.84872V5.85594C18.4706 5.97884 18.5284 6.10897 18.5863 6.23909C18.5863 6.23909 18.5863 6.24632 18.5935 6.24632C18.6224 6.30416 18.6441 6.36922 18.673 6.42705C18.673 6.43428 18.6802 6.43428 18.6802 6.44151C18.7019 6.49211 18.7236 6.54272 18.7453 6.59332C18.7525 6.60055 18.7525 6.61501 18.7598 6.62224C18.7598 6.62224 18.7598 6.62224 18.7598 6.62947C18.767 6.65116 18.7742 6.66562 18.7815 6.6873L18.7959 6.72345C18.8321 6.82466 18.8754 6.9331 18.9116 7.05599C18.9477 7.16443 18.9766 7.26564 19.0056 7.36685C19.02 7.41745 19.0345 7.46083 19.0489 7.51143C19.0489 7.51866 19.0562 7.53312 19.0562 7.54035C19.0706 7.58373 19.0778 7.63433 19.0923 7.6777C19.0995 7.71385 19.114 7.75723 19.1212 7.79337C19.1212 7.79337 19.1212 7.79337 19.1212 7.8006C19.1285 7.82229 19.1357 7.84398 19.1357 7.87289C19.1501 7.9235 19.1574 7.9741 19.1718 8.03194C19.1791 8.07531 19.1863 8.11146 19.1935 8.15483C19.208 8.21267 19.2152 8.2705 19.2224 8.32833C19.2297 8.35002 19.2297 8.37171 19.2369 8.3934C19.2441 8.43677 19.2513 8.48015 19.2586 8.52352C19.2586 8.52352 19.2586 8.52352 19.2586 8.53075C19.2658 8.5669 19.2658 8.59581 19.273 8.63196L19.2803 8.66088C19.2803 8.67534 19.2875 8.69702 19.2875 8.71148C19.2875 8.72594 19.2947 8.7404 19.2947 8.75486C19.2947 8.76931 19.302 8.791 19.302 8.80546C19.302 8.81269 19.302 8.81269 19.302 8.81992C19.3092 8.86329 19.3092 8.89944 19.3164 8.94282V8.95004C19.3164 8.97173 19.3236 8.99342 19.3236 9.00788V9.01511C19.3236 9.03679 19.3309 9.05125 19.3309 9.07294L19.3381 9.14523C19.3381 9.15969 19.3381 9.17415 19.3453 9.18861C19.3453 9.18861 19.3453 9.18861 19.3453 9.19584C19.3526 9.24644 19.3526 9.29705 19.3598 9.34765C19.3598 9.37657 19.367 9.39826 19.367 9.42717C19.367 9.48501 19.3742 9.54284 19.3742 9.60067V9.6079C19.3742 9.62959 19.3742 9.64405 19.3742 9.66574C19.3742 9.67297 19.3742 9.68019 19.3742 9.68742C19.3742 9.69465 19.3742 9.69465 19.3742 9.70188C19.3742 9.73803 19.3742 9.7814 19.3742 9.81755V9.82478C19.3742 9.88261 19.3742 9.94767 19.3742 10.0055C19.3742 15.1599 15.1813 19.3456 10.0341 19.3456C9.90399 19.3456 9.77386 19.3456 9.63651 19.3384C9.60759 19.3384 9.5859 19.3384 9.55698 19.3384C9.55698 19.3384 9.55699 19.3384 9.54976 19.3384C9.51361 19.3384 9.47023 19.3312 9.43409 19.3312C9.3618 19.324 9.2895 19.324 9.21721 19.3167C9.16661 19.3095 9.116 19.3095 9.07263 19.3023H9.05817C9.05094 19.3023 9.03648 19.3023 9.02925 19.3023L8.99311 19.295C8.98588 19.295 8.98588 19.295 8.97865 19.295C8.93527 19.2878 8.88467 19.2806 8.83406 19.2806C8.81961 19.2806 8.79792 19.2734 8.78346 19.2734C8.73286 19.2661 8.68948 19.2589 8.63888 19.2517C8.63165 19.2517 8.62442 19.2517 8.61719 19.2444C8.50152 19.23 8.37862 19.2083 8.26296 19.1866C8.22681 19.1794 8.19789 19.1721 8.16175 19.1649C8.1256 19.1577 8.08946 19.1505 8.05331 19.1432H8.04608C8.01716 19.136 7.98825 19.1288 7.95933 19.1215H7.9521C7.85089 19.0998 7.75691 19.0782 7.6557 19.0492C7.64847 19.0492 7.64125 19.0492 7.64125 19.042C7.6051 19.0348 7.56895 19.0203 7.52558 19.0131C7.51112 19.0059 7.49666 19.0059 7.4822 18.9986C7.45329 18.9914 7.4316 18.9842 7.40268 18.977C7.38099 18.9697 7.35208 18.9625 7.33039 18.9553C7.3087 18.948 7.27979 18.9408 7.2581 18.9336C7.20026 18.9191 7.14243 18.8974 7.0846 18.8757C7.04122 18.8613 6.99062 18.8468 6.94724 18.8251C6.86049 18.7962 6.76651 18.7601 6.67976 18.7239C6.6653 18.7167 6.65807 18.7167 6.64362 18.7095C6.64362 18.7095 6.64362 18.7095 6.63639 18.7095C6.62193 18.7022 6.60747 18.695 6.58578 18.6878C6.56409 18.6806 6.54241 18.6733 6.52072 18.6589C6.4918 18.6444 6.46288 18.6372 6.4412 18.6227H6.43397C6.40505 18.6083 6.37613 18.601 6.35445 18.5866C6.35445 18.5866 6.35445 18.5866 6.34722 18.5866H6.33999H6.33276C6.33276 18.5866 6.33276 18.5866 6.32553 18.5866C6.29661 18.5793 6.27493 18.5649 6.25324 18.5504L6.23878 18.5432C6.23155 18.536 6.21709 18.536 6.20986 18.5287C6.1954 18.5215 6.18095 18.5143 6.15926 18.5071C6.13034 18.4926 6.10142 18.4781 6.07251 18.4637C6.04359 18.4492 6.0219 18.4348 5.99299 18.4275C5.97853 18.4203 5.96407 18.4131 5.95684 18.4058C5.92069 18.3914 5.89178 18.3697 5.85563 18.3552C5.81226 18.3336 5.76888 18.3119 5.72551 18.2902C5.68213 18.2685 5.63876 18.2468 5.60261 18.2251C5.57369 18.2107 5.54478 18.1962 5.51586 18.1817C5.51586 18.1817 5.50863 18.1817 5.50863 18.1745C5.46525 18.1528 5.42911 18.1311 5.38573 18.1022C5.35682 18.0878 5.3279 18.0661 5.29175 18.0516C5.24115 18.0227 5.18332 17.9866 5.13271 17.9504C5.13271 17.9504 5.13271 17.9504 5.12548 17.9504C5.07488 17.9215 5.02427 17.8853 4.9809 17.8564C4.97367 17.8492 4.96644 17.8492 4.96644 17.842C4.92306 17.8131 4.87969 17.7841 4.83631 17.7552C4.80017 17.7263 4.75679 17.7046 4.72065 17.6757C4.69896 17.6612 4.67004 17.6396 4.64835 17.6251C4.6339 17.6106 4.61221 17.6034 4.59775 17.5889C4.58329 17.5817 4.56883 17.5673 4.55437 17.56C4.51823 17.5311 4.47485 17.5022 4.43871 17.4733C4.43871 17.4733 4.43871 17.4733 4.43148 17.4733C4.41702 17.4588 4.39533 17.4516 4.38087 17.4371H5.44357C5.64598 17.4371 5.81949 17.2709 5.81949 17.0612C5.81949 16.8588 5.65321 16.6853 5.44357 16.6853H3.38324C3.18083 16.6853 3.00732 16.8516 3.00732 17.0612V19.0709C3.00732 19.2733 3.1736 19.4469 3.38324 19.4469C3.58566 19.4469 3.75916 19.2806 3.75916 19.0709V17.8203C3.82422 17.8781 3.88929 17.9287 3.95435 17.9721C3.96158 17.9793 3.97604 17.9866 3.98327 17.9938C4.02664 18.0299 4.07002 18.0588 4.11339 18.095C4.14231 18.1167 4.17846 18.1384 4.20737 18.1673C4.26521 18.2034 4.32304 18.2468 4.37364 18.2829C4.43871 18.3263 4.48931 18.3625 4.53269 18.3914C4.54715 18.3986 4.55437 18.4058 4.56883 18.4131C4.61944 18.4492 4.67004 18.4781 4.72065 18.5071C4.77848 18.5432 4.83631 18.5793 4.89415 18.6155C4.93029 18.6372 4.96644 18.6589 4.99536 18.6733C5.00259 18.6733 5.00259 18.6806 5.00981 18.6806C5.06042 18.7095 5.11102 18.7384 5.16163 18.7673L5.18332 18.7818C5.19777 18.789 5.21223 18.7962 5.22669 18.8035C5.27007 18.8251 5.31344 18.8541 5.36405 18.8757C5.36405 18.8757 5.37127 18.8757 5.37127 18.883C5.41465 18.9047 5.46525 18.9336 5.50863 18.9553C5.51586 18.9553 5.51586 18.9625 5.52309 18.9625C5.54478 18.977 5.56646 18.9842 5.59538 18.9986C5.60261 18.9986 5.60984 19.0059 5.61707 19.0059C5.63153 19.0131 5.64598 19.0203 5.66044 19.0276C5.68936 19.042 5.71828 19.0565 5.73996 19.0637C5.74719 19.0637 5.74719 19.0709 5.75442 19.0709C5.77611 19.0782 5.7978 19.0926 5.81949 19.0999L5.84117 19.1071C5.86286 19.1215 5.89178 19.1288 5.91347 19.1432C5.91347 19.1432 5.92069 19.1432 5.92069 19.1505C5.92792 19.1505 5.92792 19.1505 5.93515 19.1577L6.01467 19.1938C6.0219 19.1938 6.02913 19.2011 6.03636 19.2011C6.04359 19.2011 6.04359 19.2011 6.05082 19.2083C6.07974 19.2227 6.10865 19.2372 6.1448 19.2444C6.1448 19.2444 6.1448 19.2444 6.15203 19.2444C6.18095 19.2589 6.20263 19.2661 6.23155 19.2806C6.23878 19.2806 6.23878 19.2806 6.24601 19.2878C6.25324 19.2878 6.26047 19.295 6.2677 19.295C6.28215 19.3023 6.29661 19.3095 6.3183 19.3167C6.33999 19.324 6.36168 19.3312 6.38336 19.3456C6.41228 19.3601 6.4412 19.3673 6.47011 19.3818C6.50626 19.3962 6.54241 19.4107 6.57855 19.4252C6.6147 19.4396 6.65807 19.4541 6.68699 19.4685C6.73759 19.483 6.7882 19.5047 6.8388 19.5191C6.86049 19.5264 6.88941 19.5336 6.9111 19.5408C6.97616 19.5625 7.04122 19.5842 7.10628 19.5987C7.11351 19.5987 7.11351 19.5987 7.12074 19.6059H7.12797C7.14243 19.6131 7.16412 19.6131 7.17858 19.6204C7.20026 19.6276 7.21472 19.6348 7.23641 19.6348C7.24364 19.6348 7.2581 19.642 7.26533 19.642C7.27979 19.6493 7.29424 19.6493 7.31593 19.6565C7.35208 19.6637 7.38822 19.6782 7.4316 19.6854C7.43883 19.6854 7.44606 19.6926 7.46051 19.6926C7.46774 19.6926 7.4822 19.6999 7.48943 19.6999L7.57618 19.7216C7.68462 19.7505 7.7786 19.7722 7.87258 19.7939C7.89427 19.8011 7.91596 19.8011 7.93764 19.8083L7.96656 19.8155C7.97379 19.8155 7.98102 19.8155 7.98825 19.8155C7.98825 19.8155 7.98825 19.8155 7.99548 19.8155H8.00271C8.03162 19.8228 8.06054 19.83 8.08946 19.83C8.08946 19.83 8.08946 19.83 8.09669 19.83C8.1256 19.8372 8.15452 19.8372 8.17621 19.8445C8.20512 19.8517 8.24127 19.8589 8.27019 19.8589C8.32079 19.8661 8.36417 19.8734 8.41477 19.8806C8.42923 19.8806 8.44369 19.8878 8.45815 19.8878C8.4726 19.8878 8.48706 19.8951 8.50152 19.8951C8.50875 19.8951 8.50875 19.8951 8.51598 19.8951C8.52321 19.8951 8.53044 19.8951 8.53767 19.8951C8.57381 19.9023 8.60273 19.9023 8.63888 19.9095C8.6461 19.9095 8.65333 19.9095 8.65333 19.9095C8.66779 19.9095 8.68225 19.9168 8.69671 19.9168C8.71117 19.9168 8.73286 19.924 8.74731 19.924L8.83406 19.9384C8.84129 19.9384 8.84129 19.9384 8.84852 19.9384C8.84852 19.9384 8.84852 19.9384 8.85575 19.9384H8.87021C8.88467 19.9384 8.8919 19.9384 8.90636 19.9457H8.93527C8.99311 19.9529 9.05817 19.9601 9.116 19.9601C9.14492 19.9601 9.16661 19.9674 9.19552 19.9674C9.29673 19.9746 9.39071 19.9818 9.47023 19.9818C9.49915 19.9818 9.52807 19.9818 9.55698 19.989C9.57867 19.989 9.59313 19.989 9.61482 19.989H9.62205C9.65819 19.989 9.69434 19.989 9.73049 19.989C9.74494 19.989 9.75217 19.989 9.76663 19.989C9.8317 19.989 9.90399 19.989 9.97628 19.989C12.6511 19.989 15.1596 18.948 17.0464 17.0612C18.9333 15.1744 19.9743 12.6586 19.9743 9.99105C20.0032 9.9043 20.0032 9.84647 19.996 9.78863Z" fill="#232323"/>
<path d="M2.06755 14.9066C2.04587 14.8705 2.02418 14.8343 2.00249 14.7982C1.99526 14.791 1.99526 14.7837 1.98803 14.7765C1.95911 14.7259 1.92297 14.6681 1.89405 14.6175C1.85791 14.5524 1.82176 14.4873 1.78561 14.4223C1.74947 14.3572 1.71332 14.2849 1.67718 14.2198C1.66272 14.1909 1.64103 14.1548 1.62657 14.1186C1.61934 14.1114 1.61934 14.097 1.61211 14.0897C1.59043 14.0391 1.56151 13.9885 1.53982 13.9379V13.9307C1.51813 13.8801 1.49645 13.8295 1.47476 13.7861C1.46753 13.7789 1.46753 13.7644 1.4603 13.7572C1.43861 13.7138 1.42415 13.6704 1.40247 13.6271V13.6198C1.36632 13.5403 1.3374 13.4608 1.30849 13.3885C1.2868 13.3307 1.26511 13.2801 1.24342 13.2222V13.215C1.23619 13.1861 1.22174 13.1644 1.21451 13.1355C1.20005 13.1066 1.19282 13.0704 1.17836 13.0415C1.17113 13.0126 1.15667 12.9837 1.14944 12.9547C1.13499 12.9186 1.12776 12.8824 1.1133 12.8463C1.10607 12.8318 1.10607 12.8246 1.09884 12.8102C1.07715 12.7523 1.06269 12.6873 1.04101 12.6294L1.03378 12.6077C1.02655 12.586 1.01932 12.5571 1.01209 12.5354C1.00486 12.4993 0.990401 12.4632 0.983172 12.4198V12.4125C0.975943 12.3764 0.961484 12.3403 0.954255 12.3041V12.2969L0.932568 12.2246C0.925338 12.2101 0.925338 12.1957 0.925338 12.1812C0.925338 12.1812 0.925338 12.1812 0.925338 12.174C0.918109 12.1523 0.91088 12.1234 0.91088 12.1017C0.91088 12.1017 0.91088 12.1017 0.91088 12.0945C0.91088 12.08 0.903651 12.0655 0.903651 12.0511C0.889192 11.986 0.874734 11.9137 0.860275 11.8342C0.860275 11.8198 0.853046 11.8053 0.853046 11.7908C0.853046 11.7764 0.845817 11.7619 0.845817 11.7402C0.838588 11.6969 0.831359 11.6463 0.8169 11.5956C0.809671 11.5523 0.802442 11.5089 0.795213 11.4583C0.787983 11.4149 0.780754 11.3715 0.773525 11.3209V11.3065C0.773525 11.3065 0.773525 11.3065 0.773525 11.2992C0.773525 11.292 0.773525 11.2848 0.773525 11.2776C0.766296 11.2342 0.759067 11.1836 0.751837 11.1402V11.133C0.744608 11.0968 0.744608 11.0535 0.737379 11.0173V11.0101C0.737379 10.9884 0.73015 10.9667 0.73015 10.9522V10.945C0.73015 10.9378 0.73015 10.9378 0.73015 10.9306C0.73015 10.9089 0.722921 10.8872 0.722921 10.8655V10.8583C0.722921 10.8366 0.715691 10.8149 0.715691 10.786V10.7787C0.708462 10.7281 0.708462 10.6775 0.701233 10.6269C0.701233 10.6269 0.701233 10.6269 0.701233 10.6197C0.701233 10.5908 0.694004 10.5546 0.694004 10.5257V10.5185C0.694004 10.4679 0.686775 10.4173 0.686775 10.3667C0.686775 10.3378 0.686775 10.3088 0.686775 10.2799C0.686775 10.2293 0.686775 10.1787 0.679545 10.1281C0.679545 10.1281 0.679545 10.1281 0.679545 10.1209C0.679545 10.0703 0.679545 10.0125 0.679545 9.96185C0.679545 4.80742 4.87249 0.621712 10.0197 0.621712C10.0631 0.621712 10.1064 0.621712 10.1498 0.621712C10.186 0.621712 10.2149 0.621712 10.251 0.621712C10.2872 0.621712 10.3305 0.621712 10.3667 0.621712C10.4101 0.621712 10.4534 0.621712 10.4968 0.628941C10.4968 0.628941 10.4968 0.628941 10.504 0.628941C10.5402 0.628941 10.5836 0.63617 10.6197 0.63617C10.692 0.643399 10.7643 0.643399 10.8366 0.650629C10.8655 0.650629 10.9016 0.657858 10.9306 0.657858H10.9378C10.9595 0.657858 10.9739 0.657858 10.9956 0.665087C10.9956 0.665087 10.9956 0.665087 11.0029 0.665087C11.0245 0.665087 11.039 0.672316 11.0607 0.672316C11.0751 0.672316 11.0896 0.672316 11.1113 0.679545L11.1764 0.686775C11.2053 0.694004 11.2414 0.694004 11.2703 0.701233C11.2703 0.701233 11.2703 0.701233 11.2776 0.701233H11.2848H11.292C11.3065 0.701233 11.3282 0.708462 11.3426 0.708462C11.3571 0.708462 11.3715 0.715691 11.386 0.715691C11.3932 0.715691 11.3932 0.715691 11.4005 0.715691C11.4294 0.722921 11.4583 0.722921 11.48 0.73015C11.5306 0.737379 11.5884 0.744608 11.639 0.759067H11.6463C11.6607 0.759067 11.6752 0.766296 11.6896 0.766296L11.7113 0.773525C11.7547 0.780754 11.7908 0.787983 11.8342 0.795213C11.8487 0.795213 11.8559 0.802442 11.8704 0.802442C11.9137 0.809671 11.9643 0.824129 12.0077 0.831359C12.0366 0.838588 12.0583 0.845817 12.0872 0.845817C12.1017 0.845817 12.1161 0.853046 12.1234 0.853046C12.2029 0.867505 12.2824 0.889192 12.3619 0.91088H12.3764C12.3836 0.91088 12.3909 0.918109 12.3981 0.918109C12.4704 0.939797 12.5427 0.954255 12.615 0.975943C12.6367 0.983172 12.6511 0.990401 12.6728 0.990401C12.7523 1.01209 12.8318 1.04101 12.9114 1.06269H12.9186L12.9403 1.06992C12.9547 1.07715 12.9692 1.07715 12.9764 1.08438C12.9909 1.09161 12.9981 1.09161 13.0126 1.09884C13.0487 1.1133 13.0776 1.12053 13.1138 1.13499H13.121C13.1572 1.14944 13.1861 1.15667 13.2222 1.17113C13.2511 1.18559 13.2873 1.19282 13.3162 1.20728C13.3162 1.20728 13.3234 1.20728 13.3234 1.21451C13.3523 1.22896 13.3813 1.23619 13.4102 1.25065C13.4102 1.25065 13.4174 1.25065 13.4174 1.25788L13.4969 1.2868H13.5042H13.5114H13.5186H13.5258C13.562 1.30126 13.5909 1.31572 13.6198 1.33017C13.6487 1.34463 13.6777 1.35186 13.7066 1.36632C13.7066 1.36632 13.7066 1.36632 13.7138 1.36632H13.721C13.721 1.36632 13.7283 1.36632 13.7283 1.37355C13.7572 1.38801 13.7861 1.40247 13.8222 1.41692C13.8512 1.43138 13.8728 1.43861 13.9018 1.45307C13.9379 1.46753 13.9741 1.48922 14.0102 1.50367C14.0174 1.50367 14.0247 1.5109 14.0319 1.5109C14.068 1.52536 14.097 1.53982 14.1331 1.56151H14.1403C14.162 1.57597 14.1909 1.5832 14.2126 1.59765C14.2126 1.59765 14.2126 1.59765 14.2198 1.59765C14.2488 1.61211 14.2705 1.62657 14.2994 1.6338H14.3066C14.3211 1.64103 14.3427 1.65549 14.3572 1.66272C14.3644 1.66995 14.3789 1.67718 14.3861 1.67718C14.4006 1.68441 14.4223 1.69886 14.4367 1.70609C14.4512 1.71332 14.4584 1.72055 14.4729 1.72778C14.5018 1.74224 14.5307 1.7567 14.5524 1.77116C14.5741 1.77838 14.5885 1.79284 14.6102 1.80007C14.6102 1.80007 14.6102 1.80007 14.6175 1.80007C14.6391 1.81453 14.6681 1.82899 14.6897 1.84345C14.7187 1.85791 14.7476 1.87959 14.7765 1.89405C14.8849 1.95911 14.9934 2.02418 15.0946 2.08924C15.1018 2.08924 15.1018 2.09647 15.109 2.09647C15.1163 2.09647 15.1163 2.1037 15.1235 2.1037C15.2247 2.16876 15.3259 2.23382 15.4199 2.30612C15.4488 2.3278 15.4777 2.34949 15.5139 2.37118L15.5211 2.37841C15.5283 2.37841 15.5283 2.38564 15.5356 2.38564C15.5717 2.41455 15.6079 2.43624 15.644 2.46516C15.644 2.46516 15.6512 2.46516 15.6512 2.47239L15.6585 2.47962C15.6657 2.48685 15.6801 2.49408 15.6874 2.50131H14.6247C14.4223 2.50131 14.2488 2.66758 14.2488 2.87722C14.2488 3.07964 14.415 3.25314 14.6247 3.25314H16.6344C16.8368 3.25314 17.0103 3.08687 17.0103 2.87722V0.903651C17.0103 0.701233 16.8441 0.527732 16.6344 0.527732C16.4248 0.527732 16.2585 0.694004 16.2585 0.903651V2.1543C16.2368 2.13262 16.2079 2.11816 16.1862 2.09647L16.1717 2.08924C16.1356 2.06032 16.0922 2.03141 16.0561 1.99526C16.0561 1.99526 16.0488 1.99526 16.0488 1.98803C15.9982 1.95189 15.9549 1.91574 15.9043 1.87959C15.9043 1.87959 15.9043 1.87959 15.897 1.87959C15.8681 1.85791 15.832 1.83622 15.803 1.81453L15.7958 1.8073C15.7452 1.77116 15.6874 1.73501 15.6368 1.69886C15.6079 1.67718 15.5789 1.66272 15.55 1.64103C15.5211 1.62657 15.4994 1.60488 15.4705 1.59043C15.4633 1.5832 15.456 1.57597 15.4416 1.57597C15.4199 1.56151 15.3982 1.54705 15.3693 1.53259C15.3404 1.5109 15.3115 1.49645 15.2825 1.47476H15.2753C15.2175 1.43861 15.1596 1.40247 15.109 1.37355C15.0729 1.35186 15.0367 1.33017 15.0078 1.31572C14.9789 1.29403 14.9428 1.27957 14.9139 1.25788C14.8994 1.25065 14.8922 1.24342 14.8777 1.23619C14.8705 1.22897 14.856 1.22174 14.8488 1.22174L14.8271 1.20728C14.8126 1.20005 14.7982 1.19282 14.7837 1.18559C14.7693 1.17836 14.7548 1.17113 14.7404 1.1639C14.7187 1.15667 14.7042 1.14221 14.6825 1.13499C14.6825 1.13499 14.6753 1.13499 14.6753 1.12776H14.6681C14.6102 1.09884 14.5596 1.06992 14.509 1.04823C14.509 1.04823 14.509 1.04823 14.5018 1.04823C14.4729 1.03378 14.444 1.01932 14.415 1.00486C14.3933 0.990401 14.3717 0.983172 14.3427 0.968714C14.3283 0.961484 14.3066 0.954255 14.2921 0.947026C14.2921 0.947026 14.2921 0.947026 14.2849 0.947026C14.2777 0.939797 14.2632 0.939797 14.256 0.932568C14.2271 0.918109 14.1909 0.903651 14.162 0.889192C14.1331 0.874734 14.1042 0.860276 14.0753 0.853046C14.0463 0.838588 14.0102 0.824129 13.9813 0.809671C13.9741 0.802442 13.9668 0.802442 13.9524 0.795213C13.9235 0.780754 13.8873 0.766296 13.8584 0.759067C13.8439 0.751837 13.8295 0.744608 13.815 0.737379C13.8006 0.73015 13.7789 0.722921 13.7644 0.715691C13.7572 0.715691 13.7499 0.708462 13.7355 0.708462L13.6487 0.672316H13.6415C13.6054 0.657858 13.5692 0.643399 13.5331 0.628941C13.4969 0.614482 13.4608 0.600024 13.4319 0.592795C13.3957 0.578336 13.3523 0.563878 13.3162 0.54942C13.2801 0.534961 13.2367 0.520503 13.2005 0.506044C13.1933 0.506044 13.1788 0.498815 13.1716 0.498815H13.1644L13.0849 0.448211H13.0776H13.0704C12.9909 0.419294 12.9041 0.397606 12.8174 0.368689C12.7957 0.36146 12.774 0.354231 12.7523 0.347002C12.68 0.325314 12.6077 0.303627 12.5354 0.289168C12.521 0.289168 12.5065 0.281939 12.4993 0.281939L12.4198 0.260251C12.3113 0.231335 12.2101 0.209647 12.1161 0.187959C12.0945 0.18073 12.0728 0.18073 12.0439 0.173501L12.0149 0.166272C12.0077 0.166272 12.0005 0.166272 11.9933 0.166272C11.9933 0.166272 11.9933 0.166272 11.986 0.166272C11.9788 0.166272 11.9716 0.166272 11.9571 0.159043C11.9426 0.159043 11.9354 0.151813 11.921 0.151813C11.9065 0.151813 11.892 0.144584 11.8704 0.144584C11.8414 0.137355 11.8125 0.130126 11.7908 0.130126H11.7836H11.7691C11.7619 0.130126 11.7547 0.130126 11.7547 0.130126C11.733 0.130126 11.7185 0.122897 11.6969 0.122897C11.6824 0.122897 11.6679 0.115667 11.6463 0.115667C11.6246 0.115667 11.6101 0.108438 11.5956 0.108438C11.5812 0.108438 11.5667 0.101209 11.5523 0.101209C11.545 0.101209 11.5378 0.101209 11.5306 0.101209C11.5017 0.0939797 11.48 0.0939797 11.4511 0.0867505C11.4438 0.0867505 11.4366 0.0867505 11.4366 0.0867505C11.4077 0.0795213 11.3715 0.0795213 11.3426 0.0722921C11.3426 0.0722921 11.3426 0.0722921 11.3354 0.0722921C11.3282 0.0722921 11.3209 0.0722921 11.3137 0.0722921C11.2992 0.0722921 11.2848 0.0650629 11.2631 0.0650629C11.2486 0.0650629 11.2342 0.0578336 11.2197 0.0578336C11.1908 0.0578336 11.1691 0.0506044 11.1474 0.0506044H11.1185C11.1113 0.0506044 11.1041 0.0506044 11.0968 0.0506044C11.0535 0.0433752 11.0173 0.0433752 10.9812 0.036146C10.9739 0.036146 10.9739 0.036146 10.9667 0.036146C10.9306 0.036146 10.8944 0.0289168 10.8583 0.0289168C10.786 0.0216876 10.7065 0.0144584 10.6269 0.0144584H10.6197C10.5836 0.0144584 10.5402 0.00722921 10.504 0.00722921C10.504 0.00722921 10.504 0.00722921 10.4968 0.00722921C10.4968 0.00722921 10.4968 0.00722921 10.4896 0.00722921C10.4607 0.00722921 10.4317 0.00722921 10.4028 0C10.3811 0 10.3667 0 10.3522 0C10.3088 0 10.2727 0 10.2293 0C10.1498 0 10.0703 0 9.98353 0C7.30873 0 4.80019 1.04101 2.91337 2.92783C1.04101 4.77851 0 7.29427 0 9.96185C0 10.0197 0 10.0775 0 10.1353V10.1426C0 10.1932 0 10.2366 0.00722921 10.2872V10.2944C0.00722921 10.3161 0.00722921 10.345 0.00722921 10.3667C0.00722921 10.3956 0.00722921 10.4317 0.0144584 10.4607V10.4679C0.0144584 10.4968 0.0144584 10.5185 0.0216876 10.5474C0.0216876 10.5546 0.0216876 10.5546 0.0216876 10.5619C0.0216876 10.5908 0.0216876 10.6125 0.0289168 10.6414C0.0289168 10.6486 0.0289168 10.6486 0.0289168 10.6558C0.0289168 10.6631 0.0289168 10.6703 0.0289168 10.6775C0.0289168 10.6775 0.0289168 10.6775 0.0289168 10.6848C0.0289168 10.6992 0.0289168 10.7209 0.036146 10.7354C0.036146 10.7643 0.0433752 10.786 0.0433752 10.8077C0.0433752 10.8149 0.0433752 10.8221 0.0433752 10.8294C0.0433752 10.851 0.0506044 10.8727 0.0506044 10.8944C0.0506044 10.9016 0.0506044 10.9089 0.0506044 10.9161C0.0506044 10.945 0.0578336 10.9667 0.0578336 10.9884V10.9956C0.0578336 11.0173 0.0650629 11.0462 0.0650629 11.0679C0.0650629 11.0751 0.0650629 11.0824 0.0650629 11.0968V11.1113V11.1185C0.0650629 11.1474 0.0722921 11.1764 0.0722921 11.2053C0.0795213 11.2559 0.0867505 11.2992 0.0939797 11.3499C0.0939797 11.3571 0.0939797 11.3715 0.101209 11.3788V11.386C0.108438 11.4077 0.108438 11.4366 0.115667 11.4583C0.115667 11.48 0.122897 11.5017 0.122897 11.5306C0.122897 11.5306 0.122897 11.5306 0.122897 11.5378C0.130126 11.5884 0.137355 11.639 0.151813 11.6896C0.159043 11.7402 0.166272 11.7836 0.18073 11.8342C0.18073 11.8487 0.187959 11.8704 0.187959 11.8848C0.187959 11.8993 0.195189 11.921 0.195189 11.9354C0.216876 12.0294 0.231335 12.1161 0.253022 12.1884C0.253022 12.1957 0.253022 12.1957 0.253022 12.2029V12.2101C0.260251 12.239 0.267481 12.2607 0.27471 12.2897C0.27471 12.3041 0.281939 12.3113 0.281939 12.3258V12.3403V12.3475L0.289168 12.3619V12.3692L0.296397 12.3836C0.296397 12.3909 0.303627 12.4053 0.303627 12.4125L0.310856 12.427C0.318085 12.4632 0.332543 12.4993 0.339773 12.5282C0.339773 12.5354 0.347002 12.5427 0.347002 12.5499C0.354231 12.586 0.36869 12.6294 0.383148 12.6656C0.390377 12.68 0.390377 12.7017 0.397606 12.7162L0.404836 12.7306V12.7379V12.7451C0.404836 12.7523 0.412065 12.7668 0.412065 12.774C0.419294 12.8029 0.426523 12.8318 0.440982 12.868C0.448211 12.8824 0.448211 12.8969 0.45544 12.9186C0.462669 12.933 0.469898 12.9547 0.469898 12.9692C0.477128 12.9837 0.477128 12.9909 0.484357 13.0053C0.491586 13.027 0.498815 13.0487 0.506044 13.0704C0.520503 13.1066 0.527732 13.1355 0.54219 13.1716C0.54942 13.1861 0.54942 13.1933 0.556649 13.2078C0.578336 13.2656 0.592795 13.3162 0.614483 13.3668C0.621712 13.3813 0.621712 13.3957 0.628941 13.4102C0.643399 13.4536 0.657858 13.4897 0.672316 13.5331L0.694004 13.5909C0.73015 13.6921 0.766296 13.7716 0.795213 13.8439L0.824129 13.909C0.838588 13.9451 0.853046 13.9741 0.867505 14.003C0.896422 14.0608 0.918109 14.1186 0.947026 14.1765V14.1837C0.968714 14.2343 0.99763 14.2921 1.02655 14.3427C1.03378 14.35 1.03378 14.3572 1.04101 14.3644C1.06269 14.4006 1.07715 14.444 1.09884 14.4873C1.13499 14.5524 1.17113 14.6247 1.21451 14.7042C1.25788 14.7837 1.29403 14.856 1.33017 14.9139L1.3374 14.9283C1.34463 14.9355 1.34463 14.9428 1.35186 14.9572C1.36632 14.9789 1.37355 15.0006 1.38801 15.0223C1.40247 15.044 1.41692 15.0657 1.43138 15.0874C1.4603 15.138 1.48922 15.1813 1.51813 15.2247C1.51813 15.2319 1.52536 15.2319 1.52536 15.2392C1.52536 15.2464 1.53259 15.2464 1.53259 15.2536C1.59765 15.3404 1.69886 15.3838 1.79284 15.3838C1.86514 15.3838 1.9302 15.3621 1.98803 15.3187C2.13262 15.2392 2.16153 15.0512 2.06755 14.9066Z" fill="#232323"/>
</svg>
