<svg width="15" height="15" viewBox="0 0 15 15" fill="none" xmlns="http://www.w3.org/2000/svg">
<path d="M5.45455 15H11.5909C12.1568 15 12.6409 14.625 12.8455 14.085L14.9045 8.7975C14.9659 8.625 15 8.445 15 8.25V6.75C15 5.925 14.3864 5.25 13.6364 5.25H9.33409L9.98182 1.8225L10.0023 1.5825C10.0023 1.275 9.88636 0.99 9.70227 0.7875L8.97955 0L4.48636 4.9425C4.24091 5.2125 4.09091 5.5875 4.09091 6V13.5C4.09091 14.325 4.70455 15 5.45455 15ZM5.45455 6L8.41364 2.745L7.5 6.75H13.6364V8.25L11.5909 13.5H5.45455V6ZM0 6H2.72727V15H0V6Z" fill="#595A71"/>
</svg>
