<svg width="24" height="24" viewBox="0 0 24 24" fill="none" xmlns="http://www.w3.org/2000/svg">
<g clip-path="url(#clip0_1718_28415)">
<path d="M2 19C2 20.1 2.9 21 4 21H20C21.1 21 22 20.1 22 19V16H2V19ZM4 18H20V19H4V18Z" fill="#595A71"/>
<path d="M18.6617 11.5C16.7117 11.5 16.5717 12.5 15.3317 12.5C14.1417 12.5 13.9117 11.5 12.0017 11.5C10.0517 11.5 9.91172 12.5 8.67172 12.5C7.48172 12.5 7.25172 11.5 5.34172 11.5C3.39172 11.5 3.25172 12.5 2.01172 12.5V14.5C3.91172 14.5 4.18172 13.5 5.36172 13.5C6.55172 13.5 6.78172 14.5 8.69172 14.5C10.6417 14.5 10.7817 13.5 12.0217 13.5C13.2117 13.5 13.4417 14.5 15.3517 14.5C17.3017 14.5 17.4417 13.5 18.6817 13.5C19.8717 13.5 20.0817 14.48 22.0017 14.5L21.9917 12.52C20.3817 12.19 20.3717 11.5 18.6617 11.5Z" fill="#595A71"/>
<path d="M22 9C22.02 5 17.72 3 12 3C6.29 3 2 5 2 9V10H22V9ZM4.18 8C5.01 5.81 8.61 5 12 5C15.31 5 17.93 5.73 19.19 6.99C19.49 7.3 19.71 7.63 19.84 8H4.18Z" fill="#595A71"/>
</g>
<defs>
<clipPath id="clip0_1718_28415">
<rect width="24" height="24" fill="white"/>
</clipPath>
</defs>
</svg>
